<svg width="205" height="34" viewBox="0 0 205 34" fill="none" xmlns="http://www.w3.org/2000/svg">
<rect width="205" height="34" fill="#FFFFFF"/>
<path d="M7.3201 27.7201H16.2801V33.0001H0.480103V4.92005H7.3201V27.7201Z" fill="#141414"/>
<path d="M41.5826 10.6801V33.0001H34.7426V29.9601C34.0493 30.9467 33.1026 31.7467 31.9026 32.3601C30.7293 32.9467 29.4226 33.2401 27.9826 33.2401C26.2759 33.2401 24.7693 32.8667 23.4626 32.1201C22.1559 31.3467 21.1426 30.2401 20.4226 28.8001C19.7026 27.3601 19.3426 25.6667 19.3426 23.7201V10.6801H26.1426V22.8001C26.1426 24.2934 26.5293 25.4534 27.3026 26.2801C28.0759 27.1067 29.1159 27.5201 30.4226 27.5201C31.7559 27.5201 32.8093 27.1067 33.5826 26.2801C34.3559 25.4534 34.7426 24.2934 34.7426 22.8001V10.6801H41.5826Z" fill="#141414"/>
<path d="M49.9357 8.36005C48.7357 8.36005 47.7491 8.01339 46.9757 7.32005C46.2291 6.60005 45.8557 5.72005 45.8557 4.68005C45.8557 3.61339 46.2291 2.73339 46.9757 2.04005C47.7491 1.32005 48.7357 0.960052 49.9357 0.960052C51.1091 0.960052 52.0691 1.32005 52.8157 2.04005C53.5891 2.73339 53.9757 3.61339 53.9757 4.68005C53.9757 5.72005 53.5891 6.60005 52.8157 7.32005C52.0691 8.01339 51.1091 8.36005 49.9357 8.36005ZM53.3357 10.6801V33.0001H46.4957V10.6801H53.3357Z" fill="#141414"/>
<path d="M67.3726 33.3201C65.4259 33.3201 63.6926 32.9867 62.1726 32.3201C60.6526 31.6534 59.4526 30.7467 58.5726 29.6001C57.6926 28.4267 57.1993 27.1201 57.0926 25.6801H63.8526C63.9326 26.4534 64.2926 27.0801 64.9326 27.5601C65.5726 28.0401 66.3593 28.2801 67.2926 28.2801C68.1459 28.2801 68.7993 28.1201 69.2526 27.8001C69.7326 27.4534 69.9726 27.0134 69.9726 26.4801C69.9726 25.8401 69.6393 25.3734 68.9726 25.0801C68.3059 24.7601 67.2259 24.4134 65.7326 24.0401C64.1326 23.6667 62.7993 23.2801 61.7326 22.8801C60.6659 22.4534 59.7459 21.8001 58.9726 20.9201C58.1993 20.0134 57.8126 18.8001 57.8126 17.2801C57.8126 16.0001 58.1593 14.8401 58.8526 13.8001C59.5726 12.7334 60.6126 11.8934 61.9726 11.2801C63.3593 10.6667 64.9993 10.3601 66.8926 10.3601C69.6926 10.3601 71.8926 11.0534 73.4926 12.4401C75.1193 13.8267 76.0526 15.6667 76.2926 17.9601H69.9726C69.8659 17.1867 69.5193 16.5734 68.9326 16.1201C68.3726 15.6667 67.6259 15.4401 66.6926 15.4401C65.8926 15.4401 65.2793 15.6001 64.8526 15.9201C64.4259 16.2134 64.2126 16.6267 64.2126 17.1601C64.2126 17.8001 64.5459 18.2801 65.2126 18.6001C65.9059 18.9201 66.9726 19.2401 68.4126 19.5601C70.0659 19.9867 71.4126 20.4134 72.4526 20.8401C73.4926 21.2401 74.3993 21.9067 75.1726 22.8401C75.9726 23.7467 76.3859 24.9734 76.4126 26.5201C76.4126 27.8267 76.0393 29.0001 75.2926 30.0401C74.5726 31.0534 73.5193 31.8534 72.1326 32.4401C70.7726 33.0267 69.1859 33.3201 67.3726 33.3201Z" fill="#141414"/>
<path d="M110.474 13.9601C110.474 15.5867 110.101 17.0801 109.354 18.4401C108.607 19.7734 107.461 20.8534 105.914 21.6801C104.367 22.5067 102.447 22.9201 100.154 22.9201H95.9139V33.0001H89.0739V4.92005H100.154C102.394 4.92005 104.287 5.30672 105.834 6.08005C107.381 6.85339 108.541 7.92005 109.314 9.28005C110.087 10.6401 110.474 12.2001 110.474 13.9601ZM99.6339 17.4801C100.941 17.4801 101.914 17.1734 102.554 16.5601C103.194 15.9467 103.514 15.0801 103.514 13.9601C103.514 12.8401 103.194 11.9734 102.554 11.3601C101.914 10.7467 100.941 10.4401 99.6339 10.4401H95.9139V17.4801H99.6339Z" fill="#141414"/>
<path d="M135.075 21.4801C135.075 22.1201 135.035 22.7867 134.955 23.4801H119.475C119.581 24.8667 120.021 25.9334 120.795 26.6801C121.595 27.4001 122.568 27.7601 123.715 27.7601C125.421 27.7601 126.608 27.0401 127.275 25.6001H134.555C134.181 27.0667 133.501 28.3867 132.515 29.5601C131.555 30.7334 130.341 31.6534 128.875 32.3201C127.408 32.9867 125.768 33.3201 123.955 33.3201C121.768 33.3201 119.821 32.8534 118.115 31.9201C116.408 30.9867 115.075 29.6534 114.115 27.9201C113.155 26.1867 112.675 24.1601 112.675 21.8401C112.675 19.5201 113.141 17.4934 114.075 15.7601C115.035 14.0267 116.368 12.6934 118.075 11.7601C119.781 10.8267 121.741 10.3601 123.955 10.3601C126.115 10.3601 128.035 10.8134 129.715 11.7201C131.395 12.6267 132.701 13.9201 133.635 15.6001C134.595 17.2801 135.075 19.2401 135.075 21.4801ZM128.075 19.6801C128.075 18.5067 127.675 17.5734 126.875 16.8801C126.075 16.1867 125.075 15.8401 123.875 15.8401C122.728 15.8401 121.755 16.1734 120.955 16.8401C120.181 17.5067 119.701 18.4534 119.515 19.6801H128.075Z" fill="#141414"/>
<path d="M137.323 21.8001C137.323 19.5067 137.75 17.4934 138.603 15.7601C139.483 14.0267 140.67 12.6934 142.163 11.7601C143.657 10.8267 145.323 10.3601 147.163 10.3601C148.63 10.3601 149.963 10.6667 151.163 11.2801C152.39 11.8934 153.35 12.7201 154.043 13.7601V3.40005H160.883V33.0001H154.043V29.8001C153.403 30.8667 152.483 31.7201 151.283 32.3601C150.11 33.0001 148.737 33.3201 147.163 33.3201C145.323 33.3201 143.657 32.8534 142.163 31.9201C140.67 30.9601 139.483 29.6134 138.603 27.8801C137.75 26.1201 137.323 24.0934 137.323 21.8001ZM154.043 21.8401C154.043 20.1334 153.563 18.7867 152.603 17.8001C151.67 16.8134 150.523 16.3201 149.163 16.3201C147.803 16.3201 146.643 16.8134 145.683 17.8001C144.75 18.7601 144.283 20.0934 144.283 21.8001C144.283 23.5067 144.75 24.8667 145.683 25.8801C146.643 26.8667 147.803 27.3601 149.163 27.3601C150.523 27.3601 151.67 26.8667 152.603 25.8801C153.563 24.8934 154.043 23.5467 154.043 21.8401Z" fill="#141414"/>
<path d="M172.672 14.4001C173.472 13.1734 174.472 12.2134 175.672 11.5201C176.872 10.8001 178.205 10.4401 179.672 10.4401V17.6801H177.792C176.085 17.6801 174.805 18.0534 173.952 18.8001C173.098 19.5201 172.672 20.8001 172.672 22.6401V33.0001H165.832V10.6801H172.672V14.4001Z" fill="#141414"/>
<path d="M193.101 33.3201C190.914 33.3201 188.941 32.8534 187.181 31.9201C185.448 30.9867 184.074 29.6534 183.061 27.9201C182.074 26.1867 181.581 24.1601 181.581 21.8401C181.581 19.5467 182.088 17.5334 183.101 15.8001C184.114 14.0401 185.501 12.6934 187.261 11.7601C189.021 10.8267 190.994 10.3601 193.181 10.3601C195.368 10.3601 197.341 10.8267 199.101 11.7601C200.861 12.6934 202.248 14.0401 203.261 15.8001C204.274 17.5334 204.781 19.5467 204.781 21.8401C204.781 24.1334 204.261 26.1601 203.221 27.9201C202.208 29.6534 200.808 30.9867 199.021 31.9201C197.261 32.8534 195.288 33.3201 193.101 33.3201ZM193.101 27.4001C194.408 27.4001 195.514 26.9201 196.421 25.9601C197.354 25.0001 197.821 23.6267 197.821 21.8401C197.821 20.0534 197.368 18.6801 196.461 17.7201C195.581 16.7601 194.488 16.2801 193.181 16.2801C191.848 16.2801 190.741 16.7601 189.861 17.7201C188.981 18.6534 188.541 20.0267 188.541 21.8401C188.541 23.6267 188.968 25.0001 189.821 25.9601C190.701 26.9201 191.794 27.4001 193.101 27.4001Z" fill="#141414"/>
</svg>
